<svg width="183" height="20" viewBox="0 0 183 20" fill="none" xmlns="http://www.w3.org/2000/svg">
<path d="M1.40351 15.345H3.27485C4.04678 15.345 4.67836 15.9765 4.67836 16.7485V18.6198C4.67836 19.3918 4.04678 20.0233 3.27485 20.0233H1.40351C0.631579 20.0233 0 19.3918 0 18.6198V16.7485C0 15.9765 0.631579 15.345 1.40351 15.345Z" fill="#1A90FF"/>
<path d="M179.146 5.50879H182.538L178.012 19.9766H173.591L170.62 8.37429L167.707 19.9766H163.275L158.69 5.50879H162.105L165.614 17.4971L168.807 5.50879H172.468L175.602 17.4971L179.146 5.50879Z" fill="#1A90FF"/>
<path d="M144.631 5.50879H154.128C155.59 5.50879 156.327 6.29241 156.327 7.85967V13.4386H146.023V17.2866C146.023 17.6842 146.07 17.9415 146.175 18.0468C146.281 18.1521 146.514 18.2105 146.889 18.2105H151.918C152.269 18.2105 152.503 18.1521 152.608 18.0468C152.725 17.9415 152.772 17.6842 152.772 17.2866V15.6491H156.269V17.6141C156.269 19.1813 155.532 19.9649 154.07 19.9649H144.62C143.158 19.9649 142.421 19.1813 142.421 17.6141V7.85967C142.444 6.29241 143.169 5.50879 144.631 5.50879ZM146.023 11.6842H152.83V8.19885C152.83 7.82458 152.772 7.56727 152.667 7.45031C152.561 7.33335 152.327 7.27487 151.976 7.27487H146.889C146.514 7.27487 146.281 7.33335 146.175 7.45031C146.07 7.56727 146.023 7.81288 146.023 8.19885V11.6842Z" fill="#1A90FF"/>
<path d="M137.801 5.47363H140.222V7.41515H137.169C135.895 7.41515 135.251 8.16369 135.251 9.64907V19.9649H131.672V5.50872H135.251V7.29819C135.602 6.08182 136.456 5.48533 137.801 5.47363Z" fill="#1A90FF"/>
<path d="M127.883 7.83636H124.129V4.10536C124.129 3.7077 124.082 3.45039 123.977 3.34513C123.871 3.23987 123.637 3.18139 123.263 3.18139H117.813C117.439 3.18139 117.205 3.23987 117.111 3.34513C117.017 3.45039 116.959 3.7077 116.959 4.10536V17.2867C116.959 17.6843 117.006 17.9416 117.111 18.0469C117.216 18.1521 117.45 18.2106 117.813 18.2106H123.263C123.637 18.2106 123.871 18.1521 123.977 18.0469C124.082 17.9416 124.129 17.6843 124.129 17.2867V13.5674H127.883V17.6258C127.883 19.1931 127.146 19.9767 125.684 19.9767H115.403C113.941 19.9767 113.205 19.1931 113.205 17.6258V3.77788C113.205 2.21063 113.941 1.427 115.403 1.427H125.684C127.146 1.427 127.883 2.21063 127.883 3.77788V7.83636Z" fill="#1A90FF"/>
<path d="M104.971 17.2982V14.5497C104.971 14.1754 104.912 13.9181 104.795 13.8011C104.678 13.6842 104.433 13.6257 104.07 13.6257H97.5321C96 13.6257 95.2397 12.8421 95.2397 11.2631V7.84792C95.2397 6.28067 96 5.49705 97.5321 5.48535H106.281C107.813 5.48535 108.573 6.26898 108.573 7.84792V9.67248H104.912V8.15202C104.912 7.75436 104.854 7.49705 104.737 7.39178C104.62 7.28652 104.374 7.22804 104.012 7.22804H99.883C99.5088 7.22804 99.2748 7.28652 99.1579 7.39178C99.0409 7.49705 98.9824 7.75436 98.9824 8.15202V10.959C98.9824 11.3567 99.0409 11.614 99.1579 11.7193C99.2748 11.8245 99.5204 11.883 99.883 11.883H106.398C107.93 11.883 108.69 12.6666 108.69 14.2339V17.6023C108.69 19.1696 107.93 19.9532 106.398 19.9532H97.6257C96.0935 19.9532 95.3333 19.1696 95.3333 17.6023V15.7777H98.9941V17.2982C98.9941 17.6725 99.0526 17.9298 99.1696 18.0468C99.2865 18.1637 99.5321 18.2222 99.8947 18.2222H104.082C104.444 18.2222 104.69 18.1637 104.807 18.0468C104.924 17.9298 104.971 17.6725 104.971 17.2982Z" fill="white"/>
<path d="M90.5265 5.46191H93.0529V7.40343H89.8599C88.5265 7.40343 87.8599 8.15197 87.8599 9.63735V19.9531H84.1172V5.48531H87.8599V7.27478C88.2225 6.0701 89.1113 5.46191 90.5265 5.46191Z" fill="white"/>
<path d="M67.7192 5.48535H77.6607C79.1928 5.48535 79.9531 6.26898 79.9531 7.84792V13.4269H69.1694V17.2748C69.1694 17.6725 69.2279 17.9298 69.3332 18.0351C69.4384 18.1403 69.6841 18.1988 70.07 18.1988H75.3332C75.7074 18.1988 75.9414 18.1403 76.0583 18.0351C76.1753 17.9298 76.2338 17.6725 76.2338 17.2748V15.6374H79.8946V17.6023C79.8946 19.1696 79.1343 19.9532 77.6022 19.9532H67.7192C66.187 19.9532 65.4268 19.1696 65.4268 17.6023V7.84792C65.4268 6.26898 66.187 5.48535 67.7192 5.48535ZM69.1694 11.6608H76.2922V8.17541C76.2922 7.80114 76.2338 7.54383 76.1168 7.42687C75.9998 7.30991 75.7542 7.25143 75.3917 7.25143H70.07C69.6841 7.25143 69.4384 7.30991 69.3332 7.42687C69.2279 7.54383 69.1694 7.78944 69.1694 8.17541V11.6608Z" fill="white"/>
<path d="M57.2515 0H61.0059V19.9532H57.2515V19.0292C57.0176 19.6491 56.4796 19.9532 55.6258 19.9532H49.0644C47.5322 19.9532 46.772 19.1696 46.772 17.6023V7.84795C46.772 6.2807 47.5322 5.49708 49.0644 5.48538H55.6258C56.4796 5.48538 57.0176 5.78947 57.2515 6.40936V0ZM51.4152 18.1988H56.234C56.6082 18.1988 56.8655 18.1287 57.0176 17.9766C57.1696 17.8246 57.2515 17.5789 57.2515 17.2164V8.23392C57.2515 7.87134 57.1696 7.62573 57.0176 7.47368C56.8655 7.32164 56.5965 7.25146 56.234 7.25146H51.4152C51.0293 7.25146 50.7837 7.30994 50.6784 7.4269C50.5731 7.54386 50.5147 7.78947 50.5147 8.17544V17.2749C50.5147 17.6725 50.5731 17.9298 50.6784 18.0351C50.7837 18.1404 51.0293 18.1988 51.4152 18.1988Z" fill="white"/>
<path d="M30.5497 5.48535H40.2807C41.8129 5.48535 42.5731 6.26898 42.5731 7.84792V17.6023C42.5731 19.1696 41.8129 19.9532 40.2807 19.9532H30.5497C29.0176 19.9532 28.2573 19.1696 28.2573 17.6023V7.84792C28.2573 6.26898 29.0176 5.48535 30.5497 5.48535ZM38.8655 17.2631V8.17541C38.8655 7.80114 38.807 7.54383 38.7018 7.42687C38.5965 7.30991 38.3509 7.25143 37.9649 7.25143H32.8772C32.5146 7.25143 32.269 7.30991 32.1521 7.42687C32.0351 7.54383 31.9766 7.78944 31.9766 8.17541V17.2748C31.9766 17.6725 32.0351 17.9298 32.1521 18.0351C32.269 18.1403 32.5146 18.1988 32.8772 18.1988H37.9649C38.3509 18.1988 38.5965 18.1403 38.7018 18.0351C38.807 17.9181 38.8655 17.6725 38.8655 17.2631Z" fill="white"/>
<path d="M24.5379 7.81292H20.6198V4.08193C20.6198 3.68427 20.5613 3.42696 20.456 3.32169C20.3508 3.21643 20.1051 3.15795 19.7192 3.15795H14.0233C13.6373 3.15795 13.3917 3.21643 13.2864 3.32169C13.1812 3.42696 13.1227 3.68427 13.1227 4.08193V17.2632C13.1227 17.6609 13.1695 17.9182 13.2864 18.0234C13.4034 18.1287 13.6373 18.1872 14.0233 18.1872H19.7192C20.1051 18.1872 20.3508 18.1287 20.456 18.0234C20.5613 17.9182 20.6198 17.6609 20.6198 17.2632V13.5322H24.5379V17.5907C24.5379 19.1579 23.7777 19.9416 22.2455 19.9416H11.4853C9.9531 19.9416 9.19287 19.1579 9.19287 17.5907V3.75444C9.19287 2.18719 9.9531 1.40356 11.4853 1.40356H22.2338C23.766 1.40356 24.5262 2.18719 24.5262 3.75444V7.81292H24.5379Z" fill="white"/>
</svg>
