<svg width="864" height="95" viewBox="0 0 864 95" fill="none" xmlns="http://www.w3.org/2000/svg">
<g clip-path="url(#clip0)">
<path d="M6.6419 72.8889H15.4978C19.1508 72.8889 22.1397 75.8889 22.1397 79.5556V88.4444C22.1397 92.1111 19.1508 95.1111 15.4978 95.1111H6.6419C2.98885 95.1111 0 92.1111 0 88.4444V79.5556C0 75.8889 2.98885 72.8889 6.6419 72.8889Z" fill="#1A90FF"/>
<path d="M847.783 26.1667H863.834L842.414 94.8889H821.492L807.433 39.7778L793.651 94.8889H772.674L750.977 26.1667H767.139L783.744 83.1111L798.854 26.1667H816.178L831.012 83.1111L847.783 26.1667Z" fill="#1A90FF"/>
<path d="M684.448 26.1667H729.391C736.31 26.1667 739.797 29.8889 739.797 37.3334V63.8333H691.034V82.1111C691.034 84 691.255 85.2222 691.754 85.7222C692.252 86.2222 693.359 86.5 695.13 86.5H718.93C720.591 86.5 721.698 86.2222 722.196 85.7222C722.749 85.2222 722.97 84 722.97 82.1111V74.3333H739.52V83.6667C739.52 91.1111 736.033 94.8333 729.114 94.8333H684.392C677.474 94.8333 673.987 91.1111 673.987 83.6667V37.3334C674.097 29.8889 677.529 26.1667 684.448 26.1667ZM691.034 55.5H723.247V38.9445C723.247 37.1667 722.971 35.9445 722.472 35.3889C721.974 34.8334 720.867 34.5556 719.207 34.5556H695.13C693.359 34.5556 692.252 34.8334 691.754 35.3889C691.255 35.9445 691.034 37.1111 691.034 38.9445V55.5Z" fill="#1A90FF"/>
<path d="M652.123 26H663.581V35.2222H649.135C643.101 35.2222 640.057 38.7778 640.057 45.8333V94.8333H623.12V26.1667H640.057V34.6667C641.718 28.8889 645.758 26.0556 652.123 26Z" fill="#1A90FF"/>
<path d="M605.187 37.2222H587.42V19.5C587.42 17.6111 587.199 16.3889 586.701 15.8889C586.203 15.3889 585.096 15.1111 583.325 15.1111H557.532C555.761 15.1111 554.654 15.3889 554.211 15.8889C553.768 16.3889 553.491 17.6111 553.491 19.5V82.1111C553.491 84 553.713 85.2222 554.211 85.7222C554.709 86.2222 555.816 86.5 557.532 86.5H583.325C585.096 86.5 586.203 86.2222 586.701 85.7222C587.199 85.2222 587.42 84 587.42 82.1111V64.4444H605.187V83.7222C605.187 91.1667 601.7 94.8889 594.782 94.8889H546.13C539.211 94.8889 535.724 91.1667 535.724 83.7222V17.9444C535.724 10.5 539.211 6.77777 546.13 6.77777H594.782C601.7 6.77777 605.187 10.5 605.187 17.9444V37.2222Z" fill="#1A90FF"/>
<path d="M496.758 82.1666V69.1111C496.758 67.3333 496.482 66.1111 495.928 65.5555C495.375 65 494.212 64.7222 492.497 64.7222H461.556C454.306 64.7222 450.708 61 450.708 53.5V37.2778C450.708 29.8333 454.306 26.1111 461.556 26.0555H502.958C510.208 26.0555 513.806 29.7778 513.806 37.2778V45.9444H496.482V38.7222C496.482 36.8333 496.205 35.6111 495.651 35.1111C495.098 34.6111 493.936 34.3333 492.22 34.3333H472.682C470.91 34.3333 469.803 34.6111 469.25 35.1111C468.696 35.6111 468.42 36.8333 468.42 38.7222V52.0555C468.42 53.9444 468.696 55.1666 469.25 55.6666C469.803 56.1666 470.966 56.4444 472.682 56.4444H503.511C510.762 56.4444 514.359 60.1666 514.359 67.6111V83.6111C514.359 91.0555 510.762 94.7778 503.511 94.7778H461.999C454.749 94.7778 451.151 91.0555 451.151 83.6111V74.9444H468.475V82.1666C468.475 83.9444 468.752 85.1666 469.305 85.7222C469.859 86.2778 471.021 86.5555 472.737 86.5555H492.552C494.268 86.5555 495.43 86.2778 495.984 85.7222C496.537 85.1666 496.758 83.9444 496.758 82.1666Z" fill="#292929"/>
<path d="M428.402 25.9444H440.358V35.1666H425.247C418.938 35.1666 415.783 38.7222 415.783 45.7778V94.7778H398.071V26.0555H415.783V34.5555C417.498 28.8333 421.705 25.9444 428.402 25.9444Z" fill="#292929"/>
<path d="M320.471 26.0555H367.518C374.769 26.0555 378.367 29.7778 378.367 37.2778V63.7778H327.335V82.0555C327.335 83.9444 327.611 85.1666 328.11 85.6666C328.608 86.1666 329.77 86.4444 331.597 86.4444H356.504C358.275 86.4444 359.382 86.1666 359.935 85.6666C360.489 85.1666 360.766 83.9444 360.766 82.0555V74.2778H378.09V83.6111C378.09 91.0555 374.492 94.7778 367.241 94.7778H320.471C313.221 94.7778 309.623 91.0555 309.623 83.6111V37.2778C309.623 29.7778 313.221 26.0555 320.471 26.0555ZM327.335 55.3889H361.042V38.8333C361.042 37.0555 360.766 35.8333 360.212 35.2778C359.659 34.7222 358.496 34.4444 356.78 34.4444H331.597C329.77 34.4444 328.608 34.7222 328.11 35.2778C327.611 35.8333 327.335 37 327.335 38.8333V55.3889Z" fill="#292929"/>
<path d="M270.934 0H288.701V94.7778H270.934V90.3889C269.827 93.3333 267.281 94.7778 263.24 94.7778H232.189C224.939 94.7778 221.341 91.0556 221.341 83.6111V37.2778C221.341 29.8333 224.939 26.1111 232.189 26.0556H263.24C267.281 26.0556 269.827 27.5 270.934 30.4444V0ZM243.315 86.4445H266.118C267.89 86.4445 269.107 86.1111 269.827 85.3889C270.546 84.6667 270.934 83.5 270.934 81.7778V39.1111C270.934 37.3889 270.546 36.2222 269.827 35.5C269.107 34.7778 267.834 34.4444 266.118 34.4444H243.315C241.488 34.4444 240.326 34.7222 239.828 35.2778C239.33 35.8333 239.053 37 239.053 38.8333V82.0556C239.053 83.9445 239.33 85.1667 239.828 85.6667C240.326 86.1667 241.488 86.4445 243.315 86.4445Z" fill="#292929"/>
<path d="M144.572 26.0555H190.623C197.873 26.0555 201.471 29.7778 201.471 37.2778V83.6111C201.471 91.0555 197.873 94.7778 190.623 94.7778H144.572C137.321 94.7778 133.724 91.0555 133.724 83.6111V37.2778C133.724 29.7778 137.321 26.0555 144.572 26.0555ZM183.925 82V38.8333C183.925 37.0555 183.649 35.8333 183.15 35.2778C182.652 34.7222 181.49 34.4444 179.663 34.4444H155.587C153.871 34.4444 152.708 34.7222 152.155 35.2778C151.601 35.8333 151.325 37 151.325 38.8333V82.0555C151.325 83.9444 151.601 85.1666 152.155 85.6666C152.708 86.1666 153.871 86.4444 155.587 86.4444H179.663C181.49 86.4444 182.652 86.1666 183.15 85.6666C183.649 85.1111 183.925 83.9444 183.925 82Z" fill="#292929"/>
<path d="M116.123 37.1111H97.5806V19.3889C97.5806 17.5 97.3039 16.2778 96.8057 15.7778C96.3076 15.2778 95.1453 15 93.3187 15H66.3637C64.5372 15 63.3749 15.2778 62.8767 15.7778C62.3786 16.2778 62.1018 17.5 62.1018 19.3889V82C62.1018 83.8889 62.3232 85.1111 62.8767 85.6111C63.4302 86.1111 64.5372 86.3889 66.3637 86.3889H93.3187C95.1453 86.3889 96.3076 86.1111 96.8057 85.6111C97.3039 85.1111 97.5806 83.8889 97.5806 82V64.2778H116.123V83.5555C116.123 91 112.525 94.7222 105.274 94.7222H54.3529C47.1022 94.7222 43.5045 91 43.5045 83.5555V17.8333C43.5045 10.3889 47.1022 6.66666 54.3529 6.66666H105.219C112.47 6.66666 116.067 10.3889 116.067 17.8333V37.1111H116.123Z" fill="#292929"/>
</g>
<defs>
<clipPath id="clip0">
<rect width="864" height="95" fill="white"/>
</clipPath>
</defs>
</svg>
