<svg width="27" height="40" viewBox="0 0 27 40" fill="none" xmlns="http://www.w3.org/2000/svg">
<g clip-path="url(#clip0)">
<path d="M6.6696 39.9999C10.3496 39.9999 13.3363 37.0132 13.3363 33.3332V26.6665H6.6696C2.9896 26.6665 0.00292969 29.6532 0.00292969 33.3332C0.00292969 37.0132 2.9896 39.9999 6.6696 39.9999Z" fill="#0ACF83"/>
<path d="M0.00292969 20C0.00292969 16.32 2.9896 13.3333 6.6696 13.3333H13.3363V26.6666H6.6696C2.9896 26.6666 0.00292969 23.68 0.00292969 20Z" fill="#A259FF"/>
<path d="M0.00292969 6.66668C0.00292969 2.98668 2.9896 1.23978e-05 6.6696 1.23978e-05H13.3363V13.3333H6.6696C2.9896 13.3333 0.00292969 10.3467 0.00292969 6.66668Z" fill="#F24E1E"/>
<path d="M13.3359 1.23978e-05H20.0026C23.6826 1.23978e-05 26.6693 2.98668 26.6693 6.66668C26.6693 10.3467 23.6826 13.3333 20.0026 13.3333H13.3359V1.23978e-05Z" fill="#FF7262"/>
<path d="M26.6693 20C26.6693 23.68 23.6826 26.6666 20.0026 26.6666C16.3226 26.6666 13.3359 23.68 13.3359 20C13.3359 16.32 16.3226 13.3333 20.0026 13.3333C23.6826 13.3333 26.6693 16.32 26.6693 20Z" fill="#1ABCFE"/>
</g>
<defs>
<clipPath id="clip0">
<path d="M0 0H26.672V40H0V0Z" fill="white"/>
</clipPath>
</defs>
</svg>
